<svg xmlns="http://www.w3.org/2000/svg" style="display:none">

  <!-- ── NAV: MAIN PAGES ──────────────────────────────────── -->
  <symbol id="icon-home" viewBox="0 0 24 24" fill="none" stroke="currentColor" stroke-width="2" stroke-linecap="round" stroke-linejoin="round">
    <path d="M5 12l-2 0l9-9l9 9l-2 0"/><path d="M5 12v7a2 2 0 0 0 2 2h10a2 2 0 0 0 2-2v-7"/><path d="M9 21v-6a2 2 0 0 1 2-2h2a2 2 0 0 1 2 2v6"/>
  </symbol>
  <symbol id="icon-users" viewBox="0 0 24 24" fill="none" stroke="currentColor" stroke-width="2" stroke-linecap="round" stroke-linejoin="round">
    <path d="M5 7a4 4 0 1 0 8 0a4 4 0 1 0-8 0"/><path d="M3 21v-2a4 4 0 0 1 4-4h4a4 4 0 0 1 4 4v2"/><path d="M16 3.13a4 4 0 0 1 0 7.75"/><path d="M21 21v-2a4 4 0 0 0-3-3.85"/>
  </symbol>
  <symbol id="icon-swords" viewBox="0 0 24 24" fill="none" stroke="currentColor" stroke-width="2" stroke-linecap="round" stroke-linejoin="round">
    <path d="M21 3v5l-11 9l-4 4l-3-3l4-4l9-11l5 0"/><path d="M5 13l6 6"/><path d="M14.32 17.32l3.68 3.68l3-3l-3.365-3.365"/><path d="M10 5.5l-2-2.5h-5v5l3 2.5"/>
  </symbol>
  <symbol id="icon-bolt" viewBox="0 0 24 24" fill="none" stroke="currentColor" stroke-width="2" stroke-linecap="round" stroke-linejoin="round">
    <path d="M13 3l0 7l6 0l-8 11l0-7l-6 0l8-11"/>
  </symbol>
  <symbol id="icon-trophy" viewBox="0 0 24 24" fill="none" stroke="currentColor" stroke-width="2" stroke-linecap="round" stroke-linejoin="round">
    <path d="M8 21l8 0"/><path d="M12 17l0 4"/><path d="M7 4l10 0"/><path d="M17 4v8a5 5 0 0 1-10 0v-8"/><path d="M3 9a2 2 0 1 0 4 0a2 2 0 1 0-4 0"/><path d="M17 9a2 2 0 1 0 4 0a2 2 0 1 0-4 0"/>
  </symbol>
  <symbol id="icon-calendar" viewBox="0 0 24 24" fill="none" stroke="currentColor" stroke-width="2" stroke-linecap="round" stroke-linejoin="round">
    <path d="M4 7a2 2 0 0 1 2-2h12a2 2 0 0 1 2 2v12a2 2 0 0 1-2 2h-12a2 2 0 0 1-2-2v-12"/><path d="M16 3v4"/><path d="M8 3v4"/><path d="M4 11h16"/>
  </symbol>
  <symbol id="icon-train" viewBox="0 0 24 24" fill="none" stroke="currentColor" stroke-width="2" stroke-linecap="round" stroke-linejoin="round">
    <path d="M21 13c0-3.87-3.37-7-10-7h-8"/><path d="M3 15h16a2 2 0 0 0 2-2"/><path d="M3 6v5h17.5"/><path d="M3 11v4"/><path d="M8 11v-5"/><path d="M13 11v-4.5"/><path d="M3 19h18"/>
  </symbol>
  <symbol id="icon-flag" viewBox="0 0 24 24" fill="none" stroke="currentColor" stroke-width="2" stroke-linecap="round" stroke-linejoin="round">
    <path d="M5 5a5 5 0 0 1 7 0a5 5 0 0 0 7 0v9a5 5 0 0 1-7 0a5 5 0 0 0-7 0v-9"/><path d="M5 21v-7"/>
  </symbol>
  <symbol id="icon-target" viewBox="0 0 24 24" fill="none" stroke="currentColor" stroke-width="2" stroke-linecap="round" stroke-linejoin="round">
    <path d="M11 12a1 1 0 1 0 2 0a1 1 0 1 0-2 0"/><path d="M7 12a5 5 0 1 0 10 0a5 5 0 1 0-10 0"/><path d="M3 12a9 9 0 1 0 18 0a9 9 0 1 0-18 0"/>
  </symbol>
  <symbol id="icon-heart" viewBox="0 0 24 24" fill="none" stroke="currentColor" stroke-width="2" stroke-linecap="round" stroke-linejoin="round">
    <path d="M19.5 12.572l-7.5 7.428l-7.5-7.428a5 5 0 1 1 7.5-6.566a5 5 0 1 1 7.5 6.572"/>
  </symbol>
  <symbol id="icon-scale" viewBox="0 0 24 24" fill="none" stroke="currentColor" stroke-width="2" stroke-linecap="round" stroke-linejoin="round">
    <path d="M7 20l10 0"/><path d="M6 6l6-1l6 1"/><path d="M12 3l0 17"/><path d="M9 12l-3-6l-3 6a3 3 0 0 0 6 0"/><path d="M21 12l-3-6l-3 6a3 3 0 0 0 6 0"/>
  </symbol>
  <symbol id="icon-activity" viewBox="0 0 24 24" fill="none" stroke="currentColor" stroke-width="2" stroke-linecap="round" stroke-linejoin="round">
    <path d="M3 12h4l3 8l4-16l3 8h4"/>
  </symbol>
  <symbol id="icon-mail" viewBox="0 0 24 24" fill="none" stroke="currentColor" stroke-width="2" stroke-linecap="round" stroke-linejoin="round">
    <path d="M3 7a2 2 0 0 1 2-2h14a2 2 0 0 1 2 2v10a2 2 0 0 1-2 2h-14a2 2 0 0 1-2-2v-10"/><path d="M3 7l9 6l9-6"/>
  </symbol>
  <symbol id="icon-chart-bar" viewBox="0 0 24 24" fill="none" stroke="currentColor" stroke-width="2" stroke-linecap="round" stroke-linejoin="round">
    <path d="M3 13a1 1 0 0 1 1-1h4a1 1 0 0 1 1 1v6a1 1 0 0 1-1 1h-4a1 1 0 0 1-1-1l0-6"/><path d="M15 9a1 1 0 0 1 1-1h4a1 1 0 0 1 1 1v10a1 1 0 0 1-1 1h-4a1 1 0 0 1-1-1l0-10"/><path d="M9 5a1 1 0 0 1 1-1h4a1 1 0 0 1 1 1v14a1 1 0 0 1-1 1h-4a1 1 0 0 1-1-1l0-14"/><path d="M4 20h14"/>
  </symbol>
  <symbol id="icon-volume" viewBox="0 0 24 24" fill="none" stroke="currentColor" stroke-width="2" stroke-linecap="round" stroke-linejoin="round">
    <path d="M15 8a5 5 0 0 1 0 8"/><path d="M17.7 5a9 9 0 0 1 0 14"/><path d="M6 15h-2a1 1 0 0 1-1-1v-4a1 1 0 0 1 1-1h2l3.5-4.5a.8.8 0 0 1 1.5.5v14a.8.8 0 0 1-1.5.5l-3.5-4.5"/>
  </symbol>
  <symbol id="icon-folder" viewBox="0 0 24 24" fill="none" stroke="currentColor" stroke-width="2" stroke-linecap="round" stroke-linejoin="round">
    <path d="M5 4h4l3 3h7a2 2 0 0 1 2 2v8a2 2 0 0 1-2 2h-14a2 2 0 0 1-2-2v-11a2 2 0 0 1 2-2"/>
  </symbol>
  <symbol id="icon-camera" viewBox="0 0 24 24" fill="none" stroke="currentColor" stroke-width="2" stroke-linecap="round" stroke-linejoin="round">
    <path d="M5 7h1a2 2 0 0 0 2-2a1 1 0 0 1 1-1h6a1 1 0 0 1 1 1a2 2 0 0 0 2 2h1a2 2 0 0 1 2 2v9a2 2 0 0 1-2 2h-14a2 2 0 0 1-2-2v-9a2 2 0 0 1 2-2"/><path d="M9 13a3 3 0 1 0 6 0a3 3 0 0 0-6 0"/>
  </symbol>
  <symbol id="icon-user" viewBox="0 0 24 24" fill="none" stroke="currentColor" stroke-width="2" stroke-linecap="round" stroke-linejoin="round">
    <path d="M8 7a4 4 0 1 0 8 0a4 4 0 0 0-8 0"/><path d="M6 21v-2a4 4 0 0 1 4-4h4a4 4 0 0 1 4 4v2"/>
  </symbol>
  <symbol id="icon-user-plus" viewBox="0 0 24 24" fill="none" stroke="currentColor" stroke-width="2" stroke-linecap="round" stroke-linejoin="round">
    <path d="M8 7a4 4 0 1 0 8 0a4 4 0 0 0-8 0"/><path d="M6 21v-2a4 4 0 0 1 4-4h4"/><path d="M16 19h6"/><path d="M19 16v6"/>
  </symbol>
  <symbol id="icon-chevron-down" viewBox="0 0 24 24" fill="none" stroke="currentColor" stroke-width="2" stroke-linecap="round" stroke-linejoin="round">
    <path d="M6 9l6 6l6-6"/>
  </symbol>
  <symbol id="icon-settings" viewBox="0 0 24 24" fill="none" stroke="currentColor" stroke-width="2" stroke-linecap="round" stroke-linejoin="round">
    <path d="M10.325 4.317c.426-1.756 2.924-1.756 3.35 0a1.724 1.724 0 0 0 2.573 1.066c1.543-.94 3.31.826 2.37 2.37a1.724 1.724 0 0 0 1.065 2.572c1.756.426 1.756 2.924 0 3.35a1.724 1.724 0 0 0-1.066 2.573c.94 1.543-.826 3.31-2.37 2.37a1.724 1.724 0 0 0-2.572 1.065c-.426 1.756-2.924 1.756-3.35 0a1.724 1.724 0 0 0-2.573-1.066c-1.543.94-3.31-.826-2.37-2.37a1.724 1.724 0 0 0-1.065-2.572c-1.756-.426-1.756-2.924 0-3.35a1.724 1.724 0 0 0 1.066-2.573c-.94-1.543.826-3.31 2.37-2.37c1 .608 2.296.07 2.572-1.065"/><path d="M9 12a3 3 0 1 0 6 0a3 3 0 0 0-6 0"/>
  </symbol>
  <symbol id="icon-lock" viewBox="0 0 24 24" fill="none" stroke="currentColor" stroke-width="2" stroke-linecap="round" stroke-linejoin="round">
    <path d="M5 13a2 2 0 0 1 2-2h10a2 2 0 0 1 2 2v6a2 2 0 0 1-2 2h-10a2 2 0 0 1-2-2v-6"/><path d="M11 16a1 1 0 1 0 2 0a1 1 0 0 0-2 0"/><path d="M8 11v-4a4 4 0 1 1 8 0v4"/>
  </symbol>
  <symbol id="icon-shield" viewBox="0 0 24 24" fill="none" stroke="currentColor" stroke-width="2" stroke-linecap="round" stroke-linejoin="round">
    <path d="M12 3a12 12 0 0 0 8.5 3a12 12 0 0 1-8.5 15a12 12 0 0 1-8.5-15a12 12 0 0 0 8.5-3"/>
  </symbol>

  <!-- ── NAV: THEME + CONTROLS ────────────────────────────── -->
  <symbol id="icon-brightness-auto" viewBox="0 0 24 24" fill="none" stroke="currentColor" stroke-width="2" stroke-linecap="round" stroke-linejoin="round">
    <path d="M6 6h3.5l2.5-2.5l2.5 2.5h3.5v3.5l2.5 2.5l-2.5 2.5v3.5h-3.5l-2.5 2.5l-2.5-2.5h-3.5v-3.5l-2.5-2.5l2.5-2.5l0-3.5"/><path d="M10 14.5v-3.5a2 2 0 1 1 4 0v3.5"/><path d="M10 13h4"/>
  </symbol>
  <symbol id="icon-sun" viewBox="0 0 24 24" fill="none" stroke="currentColor" stroke-width="2" stroke-linecap="round" stroke-linejoin="round">
    <path d="M8 12a4 4 0 1 0 8 0a4 4 0 1 0-8 0"/><path d="M3 12h1m8-9v1m8 8h1m-9 8v1m-6.4-15.4l.7.7m12.1-.7l-.7.7m0 11.4l.7.7m-12.1-.7l-.7.7"/>
  </symbol>
  <symbol id="icon-moon" viewBox="0 0 24 24" fill="none" stroke="currentColor" stroke-width="2" stroke-linecap="round" stroke-linejoin="round">
    <path d="M12 3c.132 0 .263 0 .393 0a7.5 7.5 0 0 0 7.92 12.446a9 9 0 1 1-8.313-12.454l0 .008"/>
  </symbol>
  <symbol id="icon-logout" viewBox="0 0 24 24" fill="none" stroke="currentColor" stroke-width="2" stroke-linecap="round" stroke-linejoin="round">
    <path d="M14 8v-2a2 2 0 0 0-2-2h-7a2 2 0 0 0-2 2v12a2 2 0 0 0 2 2h7a2 2 0 0 0 2-2v-2"/><path d="M9 12h12l-3-3"/><path d="M18 15l3-3"/>
  </symbol>
  <symbol id="icon-menu-2" viewBox="0 0 24 24" fill="none" stroke="currentColor" stroke-width="2" stroke-linecap="round" stroke-linejoin="round">
    <path d="M4 6l16 0"/><path d="M4 12l16 0"/><path d="M4 18l16 0"/>
  </symbol>

  <!-- ── ACTION BUTTONS ───────────────────────────────────── -->
  <symbol id="icon-pencil" viewBox="0 0 24 24" fill="none" stroke="currentColor" stroke-width="2" stroke-linecap="round" stroke-linejoin="round">
    <path d="M4 20h4l10.5-10.5a2.828 2.828 0 1 0-4-4l-10.5 10.5v4"/><path d="M13.5 6.5l4 4"/>
  </symbol>
  <symbol id="icon-trash" viewBox="0 0 24 24" fill="none" stroke="currentColor" stroke-width="2" stroke-linecap="round" stroke-linejoin="round">
    <path d="M4 7l16 0"/><path d="M10 11l0 6"/><path d="M14 11l0 6"/><path d="M5 7l1 12a2 2 0 0 0 2 2h8a2 2 0 0 0 2-2l1-12"/><path d="M9 7v-3a1 1 0 0 1 1-1h4a1 1 0 0 1 1 1v3"/>
  </symbol>
  <symbol id="icon-plus" viewBox="0 0 24 24" fill="none" stroke="currentColor" stroke-width="2" stroke-linecap="round" stroke-linejoin="round">
    <path d="M12 5l0 14"/><path d="M5 12l14 0"/>
  </symbol>
  <symbol id="icon-x" viewBox="0 0 24 24" fill="none" stroke="currentColor" stroke-width="2" stroke-linecap="round" stroke-linejoin="round">
    <path d="M18 6l-12 12"/><path d="M6 6l12 12"/>
  </symbol>
  <symbol id="icon-device-floppy" viewBox="0 0 24 24" fill="none" stroke="currentColor" stroke-width="2" stroke-linecap="round" stroke-linejoin="round">
    <path d="M6 4h10l4 4v10a2 2 0 0 1-2 2h-12a2 2 0 0 1-2-2v-12a2 2 0 0 1 2-2"/><path d="M10 14a2 2 0 1 0 4 0a2 2 0 1 0-4 0"/><path d="M14 4l0 4l-6 0l0-4"/>
  </symbol>
  <symbol id="icon-download" viewBox="0 0 24 24" fill="none" stroke="currentColor" stroke-width="2" stroke-linecap="round" stroke-linejoin="round">
    <path d="M4 17v2a2 2 0 0 0 2 2h12a2 2 0 0 0 2-2v-2"/><path d="M7 11l5 5l5-5"/><path d="M12 4l0 12"/>
  </symbol>
  <symbol id="icon-copy" viewBox="0 0 24 24" fill="none" stroke="currentColor" stroke-width="2" stroke-linecap="round" stroke-linejoin="round">
    <path d="M7 9.667a2.667 2.667 0 0 1 2.667-2.667h8.666a2.667 2.667 0 0 1 2.667 2.667v8.666a2.667 2.667 0 0 1-2.667 2.667h-8.666a2.667 2.667 0 0 1-2.667-2.667l0-8.666"/><path d="M4.012 16.737a2.005 2.005 0 0 1-1.012-1.737v-10c0-1.1.9-2 2-2h10c.75 0 1.158.385 1.5 1"/>
  </symbol>
  <symbol id="icon-key" viewBox="0 0 24 24" fill="none" stroke="currentColor" stroke-width="2" stroke-linecap="round" stroke-linejoin="round">
    <path d="M16.555 3.843l3.602 3.602a2.877 2.877 0 0 1 0 4.069l-2.643 2.643a2.877 2.877 0 0 1-4.069 0l-.301-.301l-6.558 6.558a2 2 0 0 1-1.239.578l-.175.008h-1.172a1 1 0 0 1-.993-.883l-.007-.117v-1.172a2 2 0 0 1 .467-1.284l.119-.13l.414-.414h2v-2h2v-2l2.144-2.144l-.301-.301a2.877 2.877 0 0 1 0-4.069l2.643-2.643a2.877 2.877 0 0 1 4.069 0"/><path d="M15 9h.01"/>
  </symbol>
  <symbol id="icon-check" viewBox="0 0 24 24" fill="none" stroke="currentColor" stroke-width="2" stroke-linecap="round" stroke-linejoin="round">
    <path d="M5 12l5 5l10-10"/>
  </symbol>

  <!-- ── HEADINGS & STATUS ─────────────────────────────────── -->
  <symbol id="icon-chart-line" viewBox="0 0 24 24" fill="none" stroke="currentColor" stroke-width="2" stroke-linecap="round" stroke-linejoin="round">
    <path d="M4 19l16 0"/><path d="M4 15l4-6l4 2l4-5l4 4"/>
  </symbol>
  <symbol id="icon-alert-triangle" viewBox="0 0 24 24" fill="none" stroke="currentColor" stroke-width="2" stroke-linecap="round" stroke-linejoin="round">
    <path d="M12 9v4"/><path d="M10.363 3.591l-8.106 13.534a1.914 1.914 0 0 0 1.636 2.871h16.214a1.914 1.914 0 0 0 1.636-2.87l-8.106-13.536a1.914 1.914 0 0 0-3.274 0"/><path d="M12 16h.01"/>
  </symbol>
  <symbol id="icon-tag" viewBox="0 0 24 24" fill="none" stroke="currentColor" stroke-width="2" stroke-linecap="round" stroke-linejoin="round">
    <path d="M6.5 7.5a1 1 0 1 0 2 0a1 1 0 1 0-2 0"/><path d="M3 6v5.172a2 2 0 0 0 .586 1.414l7.71 7.71a2.41 2.41 0 0 0 3.408 0l5.592-5.592a2.41 2.41 0 0 0 0-3.408l-7.71-7.71a2 2 0 0 0-1.414-.586h-5.172a3 3 0 0 0-3 3"/>
  </symbol>
  <symbol id="icon-world" viewBox="0 0 24 24" fill="none" stroke="currentColor" stroke-width="2" stroke-linecap="round" stroke-linejoin="round">
    <path d="M3 12a9 9 0 1 0 18 0a9 9 0 0 0-18 0"/><path d="M3.6 9h16.8"/><path d="M3.6 15h16.8"/><path d="M11.5 3a17 17 0 0 0 0 18"/><path d="M12.5 3a17 17 0 0 1 0 18"/>
  </symbol>
  <symbol id="icon-clock" viewBox="0 0 24 24" fill="none" stroke="currentColor" stroke-width="2" stroke-linecap="round" stroke-linejoin="round">
    <path d="M3 12a9 9 0 1 0 18 0a9 9 0 0 0-18 0"/><path d="M12 7v5l3 3"/>
  </symbol>
  <symbol id="icon-device-desktop" viewBox="0 0 24 24" fill="none" stroke="currentColor" stroke-width="2" stroke-linecap="round" stroke-linejoin="round">
    <path d="M3 5a1 1 0 0 1 1-1h16a1 1 0 0 1 1 1v10a1 1 0 0 1-1 1h-16a1 1 0 0 1-1-1v-10"/><path d="M7 20h10"/><path d="M9 16v4"/><path d="M15 16v4"/>
  </symbol>
  <symbol id="icon-file-text" viewBox="0 0 24 24" fill="none" stroke="currentColor" stroke-width="2" stroke-linecap="round" stroke-linejoin="round">
    <path d="M14 3v4a1 1 0 0 0 1 1h4"/><path d="M17 21h-10a2 2 0 0 1-2-2v-14a2 2 0 0 1 2-2h7l5 5v11a2 2 0 0 1-2 2"/><path d="M9 9l1 0"/><path d="M9 13l6 0"/><path d="M9 17l6 0"/>
  </symbol>
  <symbol id="icon-photo" viewBox="0 0 24 24" fill="none" stroke="currentColor" stroke-width="2" stroke-linecap="round" stroke-linejoin="round">
    <path d="M15 8h.01"/><path d="M3 6a3 3 0 0 1 3-3h12a3 3 0 0 1 3 3v12a3 3 0 0 1-3 3h-12a3 3 0 0 1-3-3v-12"/><path d="M3 16l5-5c.928-.893 2.072-.893 3 0l5 5"/><path d="M14 14l1-1c.928-.893 2.072-.893 3 0l3 3"/>
  </symbol>
  <symbol id="icon-device-mobile" viewBox="0 0 24 24" fill="none" stroke="currentColor" stroke-width="2" stroke-linecap="round" stroke-linejoin="round">
    <path d="M6 5a2 2 0 0 1 2-2h8a2 2 0 0 1 2 2v14a2 2 0 0 1-2 2h-8a2 2 0 0 1-2-2v-14"/><path d="M11 4h2"/><path d="M12 17v.01"/>
  </symbol>
  <symbol id="icon-map-pin" viewBox="0 0 24 24" fill="none" stroke="currentColor" stroke-width="2" stroke-linecap="round" stroke-linejoin="round">
    <path d="M9 11a3 3 0 1 0 6 0a3 3 0 0 0-6 0"/><path d="M17.657 16.657l-4.243 4.243a2 2 0 0 1-2.827 0l-4.244-4.243a8 8 0 1 1 11.314 0"/>
  </symbol>
  <symbol id="icon-cloud" viewBox="0 0 24 24" fill="none" stroke="currentColor" stroke-width="2" stroke-linecap="round" stroke-linejoin="round">
    <path d="M6.657 18c-2.572 0-4.657-2.007-4.657-4.483c0-2.475 2.085-4.482 4.657-4.482c.393-1.762 1.794-3.2 3.675-3.773c1.88-.572 3.956-.193 5.444 1c1.488 1.19 2.162 3.007 1.77 4.769h.99c1.913 0 3.464 1.56 3.464 3.486c0 1.927-1.551 3.487-3.465 3.487h-11.878"/>
  </symbol>
  <symbol id="icon-plug" viewBox="0 0 24 24" fill="none" stroke="currentColor" stroke-width="2" stroke-linecap="round" stroke-linejoin="round">
    <path d="M9.785 6l8.215 8.215l-2.054 2.054a5.81 5.81 0 1 1-8.215-8.215l2.054-2.054"/><path d="M4 20l3.5-3.5"/><path d="M15 4l-3.5 3.5"/><path d="M20 9l-3.5 3.5"/>
  </symbol>
  <symbol id="icon-map" viewBox="0 0 24 24" fill="none" stroke="currentColor" stroke-width="2" stroke-linecap="round" stroke-linejoin="round">
    <path d="M3 7l6-3l6 3l6-3v13l-6 3l-6-3l-6 3v-13"/><path d="M9 4v13"/><path d="M15 7v13"/>
  </symbol>
  <symbol id="icon-unlink" viewBox="0 0 24 24" fill="none" stroke="currentColor" stroke-width="2" stroke-linecap="round" stroke-linejoin="round">
    <path d="M17 22v-2"/><path d="M9 15l6-6"/><path d="M11 6l.463-.536a5 5 0 0 1 7.071 7.072l-.534.464"/><path d="M13 18l-.397.534a5.068 5.068 0 0 1-7.127 0a4.972 4.972 0 0 1 0-7.071l.524-.463"/><path d="M20 17h2"/><path d="M2 7h2"/><path d="M7 2v2"/>
  </symbol>
  <symbol id="icon-info-circle" viewBox="0 0 24 24" fill="none" stroke="currentColor" stroke-width="2" stroke-linecap="round" stroke-linejoin="round">
    <path d="M3 12a9 9 0 1 0 18 0a9 9 0 0 0-18 0"/><path d="M12 9h.01"/><path d="M11 12h1v4h1"/>
  </symbol>
  <symbol id="icon-phone" viewBox="0 0 24 24" fill="none" stroke="currentColor" stroke-width="2" stroke-linecap="round" stroke-linejoin="round">
    <path d="M5 4h4l2 5l-2.5 1.5a11 11 0 0 0 5 5l1.5-2.5l5 2v4a2 2 0 0 1-2 2a16 16 0 0 1-15-15a2 2 0 0 1 2-2"/>
  </symbol>
  <symbol id="icon-corner-down-left" viewBox="0 0 24 24" fill="none" stroke="currentColor" stroke-width="2" stroke-linecap="round" stroke-linejoin="round">
    <path d="M18 6v6a3 3 0 0 1-3 3h-10l4-4m0 8l-4-4"/>
  </symbol>

  <!-- ── DATA DISPLAY ──────────────────────────────────────── -->
  <symbol id="icon-tank" viewBox="0 0 24 24" fill="none" stroke="currentColor" stroke-width="2" stroke-linecap="round" stroke-linejoin="round">
    <path d="M2 15a3 3 0 0 1 3-3h12a3 3 0 0 1 3 3a3 3 0 0 1-3 3h-12a3 3 0 0 1-3-3"/><path d="M6 12l1-5h5l3 5"/><path d="M21 9l-7.8 0"/>
  </symbol>
  <symbol id="icon-plane-tilt" viewBox="0 0 24 24" fill="none" stroke="currentColor" stroke-width="2" stroke-linecap="round" stroke-linejoin="round">
    <path d="M14.5 6.5l3-2.9a2.05 2.05 0 0 1 2.9 2.9l-2.9 3l2.5 7.5l-2.5 2.55l-3.5-6.55l-3 3v3l-2 2l-1.5-4.5l-4.5-1.5l2-2h3l3-3l-6.5-3.5l2.5-2.5l7.5 2.5"/>
  </symbol>
  <symbol id="icon-rocket" viewBox="0 0 24 24" fill="none" stroke="currentColor" stroke-width="2" stroke-linecap="round" stroke-linejoin="round">
    <path d="M4 13a8 8 0 0 1 7 7a6 6 0 0 0 3-5a9 9 0 0 0 6-8a3 3 0 0 0-3-3a9 9 0 0 0-8 6a6 6 0 0 0-5 3"/><path d="M7 14a6 6 0 0 0-3 6a6 6 0 0 0 6-3"/><path d="M14 9a1 1 0 1 0 2 0a1 1 0 1 0-2 0"/>
  </symbol>
  <symbol id="icon-circle" viewBox="0 0 24 24" fill="none" stroke="currentColor" stroke-width="2" stroke-linecap="round" stroke-linejoin="round">
    <path d="M3 12a9 9 0 1 0 18 0a9 9 0 1 0-18 0"/>
  </symbol>
  <symbol id="icon-hourglass" viewBox="0 0 24 24" fill="none" stroke="currentColor" stroke-width="2" stroke-linecap="round" stroke-linejoin="round">
    <path d="M6.5 7h11"/><path d="M6.5 17h11"/><path d="M6 20v-2a6 6 0 1 1 12 0v2a1 1 0 0 1-1 1h-10a1 1 0 0 1-1-1"/><path d="M6 4v2a6 6 0 1 0 12 0v-2a1 1 0 0 0-1-1h-10a1 1 0 0 0-1 1"/>
  </symbol>
  <symbol id="icon-eye-off" viewBox="0 0 24 24" fill="none" stroke="currentColor" stroke-width="2" stroke-linecap="round" stroke-linejoin="round">
    <path d="M10.585 10.587a2 2 0 0 0 2.829 2.828"/><path d="M16.681 16.673a8.717 8.717 0 0 1-4.681 1.327c-3.6 0-6.6-2-9-6c1.272-2.12 2.712-3.678 4.32-4.674m2.86-1.146a9.055 9.055 0 0 1 1.82-.18c3.6 0 6.6 2 9 6c-.666 1.11-1.379 2.067-2.138 2.87"/><path d="M3 3l18 18"/>
  </symbol>
  <symbol id="icon-search" viewBox="0 0 24 24" fill="none" stroke="currentColor" stroke-width="2" stroke-linecap="round" stroke-linejoin="round">
    <path d="M3 10a7 7 0 1 0 14 0a7 7 0 1 0-14 0"/><path d="M21 21l-6-6"/>
  </symbol>
  <symbol id="icon-minus" viewBox="0 0 24 24" fill="none" stroke="currentColor" stroke-width="2" stroke-linecap="round" stroke-linejoin="round">
    <path d="M5 12l14 0"/>
  </symbol>
  <symbol id="icon-star" viewBox="0 0 24 24" fill="none" stroke="currentColor" stroke-width="2" stroke-linecap="round" stroke-linejoin="round">
    <path d="M12 17.75l-6.172 3.245l1.179-6.873l-5-4.867l6.9-1l3.086-6.253l3.086 6.253l6.9 1l-5 4.867l1.179 6.873l-6.158-3.245"/>
  </symbol>
  <symbol id="icon-first-aid-kit" viewBox="0 0 24 24" fill="none" stroke="currentColor" stroke-width="2" stroke-linecap="round" stroke-linejoin="round">
    <path d="M8 8v-2a2 2 0 0 1 2-2h4a2 2 0 0 1 2 2v2"/><path d="M4 10a2 2 0 0 1 2-2h12a2 2 0 0 1 2 2v8a2 2 0 0 1-2 2h-12a2 2 0 0 1-2-2l0-8"/><path d="M10 14h4"/><path d="M12 12v4"/>
  </symbol>

  <!-- ── UPLOAD CATEGORY ICONS ────────────────────────────── -->
  <symbol id="icon-gift" viewBox="0 0 24 24" fill="none" stroke="currentColor" stroke-width="2" stroke-linecap="round" stroke-linejoin="round">
    <path d="M3 9a1 1 0 0 1 1-1h16a1 1 0 0 1 1 1v2a1 1 0 0 1-1 1h-16a1 1 0 0 1-1-1l0-2"/><path d="M12 8l0 13"/><path d="M19 12v7a2 2 0 0 1-2 2h-10a2 2 0 0 1-2-2v-7"/><path d="M7.5 8a2.5 2.5 0 0 1 0-5a4.8 8 0 0 1 4.5 5a4.8 8 0 0 1 4.5-5a2.5 2.5 0 0 1 0 5"/>
  </symbol>
  <symbol id="icon-leaf" viewBox="0 0 24 24" fill="none" stroke="currentColor" stroke-width="2" stroke-linecap="round" stroke-linejoin="round">
    <path d="M5 21c.5-4.5 2.5-8 7-10"/><path d="M9 18c6.218 0 10.5-3.288 11-12v-2h-4.014c-9 0-11.986 4-12 9c0 1 0 3 2 5h3l.014 0"/>
  </symbol>
  <symbol id="icon-skull" viewBox="0 0 24 24" fill="none" stroke="currentColor" stroke-width="2" stroke-linecap="round" stroke-linejoin="round">
    <path d="M12 4c4.418 0 8 3.358 8 7.5c0 1.901-.755 3.637-2 4.96l0 2.54a1 1 0 0 1-1 1h-10a1 1 0 0 1-1-1v-2.54c-1.245-1.322-2-3.058-2-4.96c0-4.142 3.582-7.5 8-7.5"/><path d="M10 17v3"/><path d="M14 17v3"/><path d="M8 11a1 1 0 1 0 2 0a1 1 0 1 0-2 0"/><path d="M14 11a1 1 0 1 0 2 0a1 1 0 1 0-2 0"/>
  </symbol>
  <symbol id="icon-robot" viewBox="0 0 24 24" fill="none" stroke="currentColor" stroke-width="2" stroke-linecap="round" stroke-linejoin="round">
    <path d="M6 6a2 2 0 0 1 2-2h8a2 2 0 0 1 2 2v4a2 2 0 0 1-2 2h-8a2 2 0 0 1-2-2l0-4"/><path d="M12 2v2"/><path d="M9 12v9"/><path d="M15 12v9"/><path d="M5 16l4-2"/><path d="M15 14l4 2"/><path d="M9 18h6"/><path d="M10 8v.01"/><path d="M14 8v.01"/>
  </symbol>
  <symbol id="icon-archive" viewBox="0 0 24 24" fill="none" stroke="currentColor" stroke-width="2" stroke-linecap="round" stroke-linejoin="round">
    <rect x="3" y="4" width="18" height="4" rx="2"/><path d="M5 8v10a2 2 0 0 0 2 2h10a2 2 0 0 0 2-2v-10"/><path d="M10 12h4"/>
  </symbol>
  <symbol id="icon-chevron-left" viewBox="0 0 24 24" fill="none" stroke="currentColor" stroke-width="2" stroke-linecap="round" stroke-linejoin="round">
    <path d="M15 6l-6 6l6 6"/>
  </symbol>
  <symbol id="icon-chevron-right" viewBox="0 0 24 24" fill="none" stroke="currentColor" stroke-width="2" stroke-linecap="round" stroke-linejoin="round">
    <path d="M9 6l6 6l-6 6"/>
  </symbol>

</svg>
